<svg width="250" height="246" viewBox="0 0 250 246" fill="none" xmlns="http://www.w3.org/2000/svg">
<path d="M7.98613 123.611C7.23613 58.7778 62.6945 4.29168 129.056 6.15279C191.472 7.91668 243.694 59.9028 243.681 125.694C243.681 189.958 187.139 243.569 123.472 242.139C59.5139 240.708 6.87502 187.306 8.00002 123.597L7.98613 123.611ZM124.736 230.306C183.389 230.556 231.25 183.736 231.931 126.111C232.653 65.5417 184.25 19.2639 128.722 17.875C68.8472 16.375 20.1528 63.5972 19.3611 123.125C18.5417 184.208 70.2084 230.931 124.736 230.306Z" fill="#F4CE14"/>
<path d="M126.403 134.472C130.319 145.028 133.778 154.222 137.153 163.444C142.569 178.236 147.889 193.056 153.319 207.833C155.556 213.903 155.375 214.222 149.292 217.125C131.611 225.556 114.486 224.319 97.6528 214.681C94.75 213.014 93.875 211.681 95.3472 208.208C104.875 185.736 114.083 163.139 123.431 140.583C124.083 139.014 124.917 137.514 126.403 134.458V134.472Z" fill="#F4CE14"/>
<path d="M136.208 123.389C144.181 120.431 151.194 117.764 158.25 115.194C175.194 109.028 192.208 103.056 209.083 96.6945C213.903 94.875 216.597 95.5278 218.722 100.5C226.264 118.111 225.917 135.167 216.181 151.861C214.542 154.667 212.889 155.778 209.5 154.347C186.167 144.542 162.75 134.917 139.375 125.208C138.625 124.903 137.958 124.403 136.208 123.375V123.389Z" fill="#F4CE14"/>
<path d="M133.806 113.986C135.861 109.292 137.833 104.556 140 99.9028C148.639 81.3889 157.417 62.9306 165.944 44.3611C167.597 40.7778 169.431 39.9028 173.181 41.1806C192.458 47.7361 204.375 60.9167 209.528 80.5C210.528 84.3194 208.125 85.4028 205.472 86.5C189.458 93.0972 173.444 99.6944 157.431 106.278C151.667 108.653 145.917 111.056 140.139 113.375C138.431 114.056 136.639 114.528 134.889 115.083C134.528 114.722 134.167 114.347 133.819 113.986H133.806Z" fill="#F4CE14"/>
<path d="M118.056 133.042C115.597 138.681 113.569 143.556 111.347 148.333C102.792 166.708 94.0972 185.014 85.6528 203.431C83.8611 207.361 81.9028 208.472 77.6528 206.958C59.0417 200.361 47.4444 187.417 41.9861 168.667C41.2083 165.972 41.1111 163.75 44.4583 162.375C67.5417 152.944 90.5694 143.361 113.639 133.875C114.681 133.444 115.889 133.431 118.069 133.042H118.056Z" fill="#F4CE14"/>
<path d="M135.778 132.972C137.264 133.306 138.875 133.403 140.222 134.028C161.903 144.111 183.5 154.347 205.222 164.347C208.931 166.056 210 167.778 208.569 171.847C201.917 190.875 188.931 202.889 169.486 207.806C167.986 208.181 164.861 206.958 164.319 205.694C154.472 182.403 144.903 159 135.306 135.611C135.056 135.014 135.194 134.264 135.153 133.583C135.361 133.375 135.569 133.181 135.778 132.972Z" fill="#F4CE14"/>
<path d="M124.625 112.125C122.139 105.556 119.583 99.0139 117.167 92.4167C110.806 75.0278 104.694 57.5556 98.0834 40.2639C96.2222 35.375 97.4306 33.125 101.903 31.125C119.639 23.2222 136.819 24.0417 153.667 33.6389C156.083 35.0278 157.264 36.6111 156.056 39.5278C146 63.625 136 87.75 125.986 111.861C125.528 111.944 125.069 112.042 124.611 112.125H124.625Z" fill="#F4CE14"/>
<path d="M115.681 115.736C111.167 113.806 106.597 112 102.139 109.931C83.2778 101.181 64.4861 92.2639 45.5695 83.6111C42.1111 82.0278 41.4861 80.4445 42.7084 76.8611C49.0139 58.4306 61.3195 46.4306 79.9861 40.7917C84.25 39.5 86.3889 40.1806 88.1945 44.7361C96.9861 66.7917 106.208 88.6806 115.264 110.639C115.778 111.889 116.181 113.181 116.625 114.444C116.306 114.875 116 115.306 115.681 115.736Z" fill="#F4CE14"/>
<path d="M113.722 124.5C111.042 125.903 109.667 126.833 108.153 127.389C85.6945 135.611 63.2083 143.778 40.75 152C37.4583 153.208 35.1806 152.722 33.5556 149.319C25.2083 131.819 25.2778 114.597 34.625 97.4306C36.8333 93.3611 38.9722 92.8056 43.3195 94.6667C64.0278 103.569 84.9167 112.056 105.722 120.708C108.014 121.667 110.236 122.833 113.722 124.5Z" fill="#F4CE14"/>
<path d="M135.153 133.583L134.611 132.792C135 132.861 135.389 132.917 135.778 132.972C135.569 133.167 135.361 133.375 135.153 133.583Z" fill="#F4CE14"/>
</svg>
