<svg width="250" height="241" viewBox="0 0 250 241" fill="none" xmlns="http://www.w3.org/2000/svg">
<path d="M179.885 7.83044C186.379 8.31895 191.279 8.27585 196.02 9.13792C207.586 11.25 215.977 17.3132 221.839 28.046C234.971 52.0833 241.767 77.5287 241.121 104.842C240.532 129.54 233.937 152.902 224.569 175.661C221.968 181.968 220.46 189.037 219.957 195.862C218.376 217.241 198.06 235.043 176.149 231.178C151.135 226.753 125.963 225.761 100.79 223.937C73.2327 221.925 51.0201 209.181 33.6207 188.592C23.9799 177.198 15.7184 164.397 8.40514 151.351C0.890776 137.931 4.77009 124.052 11.3937 111.207C23.3908 87.9741 42.1839 70.8621 62.931 55.7184C85.9482 38.9224 110.776 25.431 137.859 16.3649C144.641 14.0948 151.595 12.1552 158.606 10.7758C166.135 9.29596 173.836 8.64941 179.885 7.84481V7.83044ZM181.652 17.0258C181.652 16.9396 181.652 16.8678 181.652 16.7816C178.06 16.9396 174.483 17.069 170.905 17.2845C169.842 17.3419 168.779 17.6293 167.73 17.8017C141.509 22.3563 117.284 32.227 94.3678 45.4741C76.6092 55.7327 59.8132 67.3276 45.0287 81.6666C32.3132 93.9942 21.0488 107.284 15.0718 124.425C9.42526 140.618 15.3592 154.282 31.3074 159.756C47.4425 165.302 63.7069 163.032 79.5115 158.664C120.632 147.299 156.509 126.695 186.078 95.704C198.448 82.7442 208.678 68.3477 213.434 50.6753C218.75 30.9052 209.483 17.9598 189.195 17.0546C186.695 16.9396 184.167 17.0402 181.667 17.0402L181.652 17.0258Z" fill="#F4CE14"/>
<path d="M104.928 139.569C106.379 134.109 107.471 129.871 108.606 125.647C111.063 116.48 113.578 107.328 115.948 98.1322C116.595 95.6465 117.5 94.1954 120.359 95.158C133.233 99.4971 146.121 103.779 160.201 108.506C144.066 123.362 126.566 133.534 104.914 139.569H104.928Z" fill="#F4CE14"/>
<path d="M110.862 86.0919C96.3218 81.3362 82.7873 76.9109 67.8735 72.0402C83.7356 57.0115 101.121 47.2701 120.761 41.408C121.336 41.6954 121.925 41.9827 122.5 42.2845C118.707 56.5804 114.899 70.8908 110.862 86.1063V86.0919Z" fill="#F4CE14"/>
<path d="M44.9138 151.796C65.7902 134.339 85.6034 117.773 105.417 101.193C105.862 101.408 106.322 101.638 106.767 101.853C105.891 105.072 105.158 108.333 104.109 111.494C100.891 121.193 97.6149 130.876 94.1954 140.503C93.635 142.069 92.658 144.095 91.3218 144.698C78.5057 150.474 65.431 155.345 50.9339 153.333C49.4109 153.118 47.9454 152.572 44.8994 151.782L44.9138 151.796Z" fill="#F4CE14"/>
<path d="M90.9195 104.943C87.7299 107.687 84.6264 110.517 81.3506 113.147C67.658 124.095 53.7931 134.828 40.273 145.977C35.7327 149.727 31.1781 149.727 26.9827 146.954C23.9942 144.986 20.4598 141.466 20.1437 138.333C19.6408 133.276 22.2126 127.672 27.2988 125.69C46.954 118.032 66.8391 110.948 86.6666 103.721C87.7442 103.333 89.0517 103.563 90.2586 103.506C90.4741 103.98 90.704 104.468 90.9195 104.943Z" fill="#F4CE14"/>
<path d="M182.96 28.7787C162.026 46.1782 141.997 62.8017 121.983 79.4396C121.58 79.1954 121.193 78.9655 120.79 78.7213C123.405 70.704 126.006 62.6868 128.621 54.6695C128.836 53.9942 129.052 53.3046 129.282 52.6293C135.359 34.6839 135.33 34.5977 153.578 29.2241C162.744 26.5374 172.04 24.7701 182.96 28.7644V28.7787Z" fill="#F4CE14"/>
<path d="M127.557 88.1609C152.399 79.4971 176.566 71.0632 201.652 62.3132C199.899 71.9827 194.626 78.319 188.894 84.0804C183.736 89.2672 177.845 93.75 172.069 98.2615C170.704 99.3247 168.305 99.9856 166.667 99.5977C154.31 96.5804 142.011 93.2615 129.713 90C129.267 89.885 128.922 89.3534 127.557 88.1753V88.1609Z" fill="#F4CE14"/>
<path d="M99.9568 92.3851C75.8908 100.776 51.839 109.167 26.4942 117.989C27.2126 115.043 27.3419 112.988 28.1896 111.279C34.5977 98.319 45.2586 89.3678 56.9396 81.4799C58.1034 80.704 60.0574 80.431 61.4367 80.7615C74.2528 83.9655 87.0258 87.3563 99.8132 90.6897C99.8563 91.25 99.9137 91.8103 99.9568 92.3707V92.3851Z" fill="#F4CE14"/>
<path d="M134.468 77.112C140.948 71.8534 147.385 66.5517 153.908 61.3505C165.388 52.1839 176.925 43.0891 188.434 33.9511C192.241 30.9339 197.917 31.0776 202.759 34.2959C206.997 37.112 207.601 41.0057 206.394 45.6178C205.043 50.7902 202.471 54.181 196.983 56.1207C177.241 63.1178 157.701 70.6896 138.075 78.0028C137.155 78.3477 136.106 78.3189 135.115 78.4626C134.899 78.0028 134.669 77.5431 134.454 77.0833L134.468 77.112Z" fill="#F4CE14"/>
</svg>
